<svg width="24" height="25" viewBox="0 0 24 25" fill="none" xmlns="http://www.w3.org/2000/svg">
<path fill-rule="evenodd" clip-rule="evenodd" d="M20.16 12.3313C20.16 11.7286 20.1059 11.149 20.0055 10.5926H12V13.8806H16.5745C16.3775 14.9431 15.7786 15.8433 14.8784 16.4461V18.5788H17.6254C19.2327 17.099 20.16 14.9199 20.16 12.3313Z" fill="#4285F4"/>
<path fill-rule="evenodd" clip-rule="evenodd" d="M12 20.6381C14.295 20.6381 16.2191 19.877 17.6255 18.5788L14.8784 16.446C14.1173 16.956 13.1436 17.2574 12 17.2574C9.78612 17.2574 7.91226 15.7622 7.24384 13.7531H4.40407V15.9554C5.80271 18.7333 8.67726 20.6381 12 20.6381Z" fill="#34A853"/>
<path fill-rule="evenodd" clip-rule="evenodd" d="M7.24385 13.7531C7.07385 13.2431 6.97726 12.6983 6.97726 12.1381C6.97726 11.5779 7.07385 11.0331 7.24385 10.5231V8.32084H4.40407C3.82839 9.46834 3.49998 10.7665 3.49998 12.1381C3.49998 13.5097 3.82839 14.8079 4.40407 15.9554L7.24385 13.7531Z" fill="#FBBC05"/>
<path fill-rule="evenodd" clip-rule="evenodd" d="M12 7.01878C13.2479 7.01878 14.3684 7.44764 15.2493 8.28992L17.6873 5.85196C16.2152 4.48037 14.2911 3.63809 12 3.63809C8.67726 3.63809 5.80271 5.54287 4.40407 8.32083L7.24384 10.5231C7.91225 8.51401 9.78612 7.01878 12 7.01878Z" fill="#EA4335"/>
</svg>
